# xmcd
#
# Track frame offsets: 
#        150
#        19548
#        45890
#        65479
#        87895
#        108890
#        130123
#        149676
#        169776
#        199298
#        227479
#        249059
#
# Disc length: 3572 seconds
#
# Revision: 0
# Processed by: cddbd v1.5.2PL0 Copyright (c) Steve Scherf et al.
# Submitted via: ExactAudioCopy v1.0b1
#
DISCID=920df20c
DTITLE=Bich Thao - Vol.3 - Trom Nhin Nhau
DYEAR=2009
DGENRE=Viet Nam
TTITLE0=Trom Nhin Nhau (Tram Tu Thieng)
TTITLE1=Neu Anh Dung Hen (Le Dinh) song ca Quoc Dai
TTITLE2=Huong Tinh Muon (Nhat Ngan)
TTITLE3=Phan To Tam (Minh Ky, Ho Tinh Tam)
TTITLE4=Con Duong Mang Ten Em (Truc Phuong) song ca Che Phi
TTITLE5=Duyen Que (Hoang Thi Tho)
TTITLE6=Vang Tran Suy Tu (Thanh Son)
TTITLE7=Chuyen Ba Mua Mua (Minh Ky, Da Cam)
TTITLE8=Ao Em Chua Mac Mot Lan (Hoai Linh) song ca Quoc Dai
TTITLE9=Lan Va Diep 3 (Mac Phong Linh, Mai Thiet Linh)
TTITLE10=Ngon Truc Dao (Anh Bang)
TTITLE11=Tuong Tu Nang Ca Sy (Kong Thanh Bich)
EXTD=
EXTT0=
EXTT1=
EXTT2=
EXTT3=
EXTT4=
EXTT5=
EXTT6=
EXTT7=
EXTT8=
EXTT9=
EXTT10=
EXTT11=
PLAYORDER=
